# xmcd
#
# Track frame offsets:
#	150
#	24447
#	44320
#	73565
#	100985
#	125767
#	144630
#	163480
#	180460
#	207572
#	231205
#	249942
#	267835
#
# Disc length: 3826 seconds
#
# Revision: 1
# Processed by: cddbd v1.5.1PL0 Copyright (c) Steve Scherf et al.
# Submitted via: audiograbber 1.82.02
#
DISCID=be0ef00d
DTITLE=David West and the Dead Strings - Ignore Alien Orders
DYEAR=1998
DGENRE=Country
TTITLE0=Scarlet Begonias
TTITLE1=Friend Of The Devil
TTITLE2=Bird Song
TTITLE3=Truckin' (Feat The " Truckin' Telecasters")
TTITLE4=Althea
TTITLE5=Lady With A Fan (From " Terrapin Station")
TTITLE6=Casey Jones
TTITLE7=Samson And Dalilah
TTITLE8=Touch Of Grey
TTITLE9=Cumperland Blues
TTITLE10=Ripple
TTITLE11=Goin' Down The Road Feelin' Bad
TTITLE12=Dark Star
EXTD=
EXTT0=
EXTT1=
EXTT2=
EXTT3=
EXTT4=
EXTT5=
EXTT6=
EXTT7=
EXTT8=
EXTT9=
EXTT10=
EXTT11=
EXTT12=
PLAYORDER=
